HIERARCHY
ROOT Hips
{
    OFFSET 0.000000 0.000000 0.000000
    CHANNELS 6 Xposition Yposition Zposition Zrotation Xrotation Yrotation
    JOINT Spine
    {
        OFFSET -0.000000 14.517291 0.000000
        CHANNELS 3 Zrotation Xrotation Yrotation
        JOINT Spine1
        {
            OFFSET -0.000000 37.558300 0.000000
            CHANNELS 3 Zrotation Xrotation Yrotation
            JOINT Neck
            {
                OFFSET -0.000000 37.404057 3.400369
                CHANNELS 3 Zrotation Xrotation Yrotation
                JOINT Head
                {
                    OFFSET -0.000000 24.785618 -3.540803
                    CHANNELS 3 Zrotation Xrotation Yrotation
                    End Site
                    {
                        OFFSET -0.000000 35.408028 0.000000
                    }
                }
            }
            JOINT LeftShoulder
            {
                OFFSET 6.992933 33.973492 -0.192664
                CHANNELS 3 Zrotation Xrotation Yrotation
                JOINT LeftArm
                {
                    OFFSET 21.527611 0.000000 0.000000
                    CHANNELS 3 Zrotation Xrotation Yrotation
                    JOINT LeftForeArm
                    {
                        OFFSET 56.353916 0.000000 0.000000
                        CHANNELS 3 Zrotation Xrotation Yrotation
                        JOINT LeftHand
                        {
                            OFFSET 47.774071 0.000000 0.000000
                            CHANNELS 3 Zrotation Xrotation Yrotation
                            End Site
                            {
                                OFFSET 26.556021 0.000000 0.000000
                            }
                        }
                    }
                }
            }
            JOINT RightShoulder
            {
                OFFSET -7.065357 33.973492 -0.192664
                CHANNELS 3 Zrotation Xrotation Yrotation
                JOINT RightArm
                {
                    OFFSET -21.527611 0.000000 0.000000
                    CHANNELS 3 Zrotation Xrotation Yrotation
                    JOINT RightForeArm
                    {
                        OFFSET -56.353916 0.000000 0.000000
                        CHANNELS 3 Zrotation Xrotation Yrotation
                        JOINT RightHand
                        {
                            OFFSET -47.774071 0.000000 0.000000
                            CHANNELS 3 Zrotation Xrotation Yrotation
                            End Site
                            {
                                OFFSET -26.556021 0.000000 0.000000
                            }
                        }
                    }
                }
            }
        }
    }
    JOINT LeftUpLeg
    {
        OFFSET 17.704014 0.000000 0.000000
        CHANNELS 3 Zrotation Xrotation Yrotation
        JOINT LeftLeg
        {
            OFFSET -0.000000 -81.181816 0.000000
            CHANNELS 3 Zrotation Xrotation Yrotation
            JOINT LeftFoot
            {
                OFFSET -0.000000 -62.821102 0.000000
                CHANNELS 3 Zrotation Xrotation Yrotation
                JOINT LeftToeBase
                {
                    OFFSET -0.000000 -11.507608 26.556021
                    CHANNELS 3 Zrotation Xrotation Yrotation
                    End Site
                    {
                        OFFSET -0.000000 0.000000 7.081605
                    }
                }
            }
        }
    }
    JOINT RightUpLeg
    {
        OFFSET -17.704014 0.000000 0.000000
        CHANNELS 3 Zrotation Xrotation Yrotation
        JOINT RightLeg
        {
            OFFSET -0.000000 -81.181816 0.000000
            CHANNELS 3 Zrotation Xrotation Yrotation
            JOINT RightFoot
            {
                OFFSET -0.000000 -62.821102 0.000000
                CHANNELS 3 Zrotation Xrotation Yrotation
                JOINT RightToeBase
                {
                    OFFSET -0.000000 -11.507608 26.556021
                    CHANNELS 3 Zrotation Xrotation Yrotation
                    End Site
                    {
                        OFFSET -0.000000 0.000000 7.081605
                    }
                }
            }
        }
    }
}
MOTION
Frames:    6
Frame Time:    0.008333
35.938389    160.635361    -99.419746    -0.898990    0.642434    24.461445    -1.750045    -1.611437    -6.751652    -5.645128    -4.689683    -2.471650    11.038799    -7.655153    2.344636    7.501673    14.490293    0.166292    22.042023    -22.067293    -19.052351    -39.154655    -32.386726    -83.789948    17.591642    -64.420624    -98.397011    -34.385056    -43.272594    -48.564445    -7.377302    1.612210    -6.810888    20.684874    21.330500    14.022468    17.144051    15.653784    4.857563    2.818888    15.516862    23.658642    7.360668    3.225010    0.449024    -8.960461    18.879074    -16.668800    4.399627    -20.567045    44.380222    0.000000    0.000000    0.000000    -15.624298    -27.469337    -7.942911    12.194673    28.208929    -14.161609    4.214598    12.612621    -11.961824    0.000000    0.000000    0.000000    
35.944313    160.614487    -99.419998    -0.889523    0.587244    24.539989    -1.746861    -1.606551    -6.756671    -5.667592    -4.642712    -2.471970    11.041418    -7.633079    2.340860    7.516502    14.568046    0.160372    21.987055    -21.963106    -19.100824    -39.189453    -32.334156    -83.777138    17.571068    -64.438293    -98.364090    -34.268410    -43.400475    -48.462387    -7.408197    1.591313    -6.807939    20.669678    21.339529    14.022975    17.094275    15.594033    4.879887    2.907487    15.473600    23.649704    7.390657    3.249928    0.440907    -8.962490    18.920713    -16.712906    4.434461    -20.594948    44.350700    0.000000    0.000000    0.000000    -15.638208    -27.417379    -7.940629    12.215483    28.258997    -14.193307    4.229615    12.565111    -12.000375    0.000000    0.000000    0.000000    
35.945518    160.593216    -99.422112    -0.876476    0.535496    24.612722    -1.750345    -1.587166    -6.762101    -5.687933    -4.616043    -2.473392    11.033878    -7.611195    2.338380    7.548567    14.639006    0.156932    21.938965    -21.836903    -19.140661    -39.198055    -32.300434    -83.764076    17.532732    -64.458168    -98.280418    -34.185036    -43.553295    -48.344666    -7.441231    1.585790    -6.813381    20.654985    21.338568    14.034141    17.034626    15.557034    4.927984    2.937153    15.437079    23.609756    7.417421    3.279339    0.424060    -8.972826    18.945791    -16.746965    4.452500    -20.626038    44.332138    0.000000    0.000000    0.000000    -15.657201    -27.364235    -7.935350    12.247028    28.298723    -14.222240    4.251774    12.514141    -12.039962    0.000000    0.000000    0.000000    
35.946583    160.574677    -99.424385    -0.858551    0.488318    24.677179    -1.764614    -1.582333    -6.766914    -5.701514    -4.564283    -2.472959    11.058540    -7.607961    2.349592    7.521067    14.717345    0.158194    21.941545    -21.810299    -19.180086    -39.256844    -32.210606    -83.657707    17.509569    -64.473991    -98.188667    -34.136646    -43.669991    -48.243420    -7.474798    1.563959    -6.813467    20.648987    21.346722    14.043801    16.973070    15.506209    4.971457    2.905837    15.376907    23.635771    7.436792    3.312101    0.407575    -8.979877    18.962099    -16.785210    4.476342    -20.647017    44.312943    0.000000    0.000000    0.000000    -15.675386    -27.316675    -7.918897    12.270811    28.338125    -14.261578    4.260469    12.468558    -12.064850    0.000000    0.000000    0.000000    
35.946560    160.563736    -99.429008    -0.850817    0.446594    24.735128    -1.770573    -1.576948    -6.768032    -5.708347    -4.520525    -2.471458    11.067645    -7.626479    2.360595    7.502820    14.805138    0.158968    21.807814    -21.626846    -19.217319    -39.113518    -32.192024    -83.649925    17.694145    -64.528404    -97.774223    -34.024662    -43.759418    -48.212154    -7.514152    1.542435    -6.817903    20.632645    21.285276    14.067877    16.957909    15.520129    4.996821    2.829132    15.373346    23.675697    7.454050    3.334785    0.417595    -8.964346    18.981722    -16.829128    4.476936    -20.674246    44.291908    0.000000    0.000000    0.000000    -15.681003    -27.277212    -7.902824    12.281646    28.367016    -14.274126    4.273632    12.445758    -12.103097    0.000000    0.000000    0.000000    
35.946751    160.558090    -99.438286    -0.845453    0.421655    24.789351    -1.779999    -1.595883    -6.774958    -5.723387    -4.459349    -2.471158    11.077314    -7.642385    2.379958    7.502836    14.863736    0.171176    21.818142    -21.621990    -19.241030    -39.078781    -32.094475    -83.471344    17.846861    -64.599510    -97.462364    -33.892052    -43.910202    -48.087406    -7.546562    1.520200    -6.814801    20.590248    21.163799    14.112836    17.023628    15.565141    4.979177    2.790513    15.409594    23.647596    7.469480    3.343527    0.395319    -8.971441    18.992329    -16.857136    4.497617    -20.682299    44.294228    0.000000    0.000000    0.000000    -15.696109    -27.249937    -7.882994    12.302975    28.378433    -14.306943    4.284410    12.434933    -12.136888    0.000000    0.000000    0.000000    
